<?xml version="1.0" encoding="utf-8"?>
<!-- Generator: Adobe Illustrator 27.5.0, SVG Export Plug-In . SVG Version: 6.00 Build 0)  -->
<svg version="1.1" id="Camada_1" xmlns="http://www.w3.org/2000/svg" xmlns:xlink="http://www.w3.org/1999/xlink" x="0px" y="0px"
	 viewBox="0 0 1085.2 343" style="enable-background:new 0 0 1085.2 343;" xml:space="preserve">
<style type="text/css">
	.st0{fill:#004A80;}
	.st1{fill-rule:evenodd;clip-rule:evenodd;fill:#A71C20;}
	.st2{fill-rule:evenodd;clip-rule:evenodd;fill:#004A80;}
</style>
<g>
	<g>
		<path class="st0" d="M347.8,215.4l78.4,0.1l0,27l-45.6-0.1l0,20.4l40.2,0.1l0,27.9l-40.2-0.1l-0.1,49.9l-32.9,0L347.8,215.4z"/>
		<path class="st0" d="M446.8,215.5l52.7,0.1c25.4,0,46,20.8,46,46.1c0,13.3-5.9,25.4-14.9,33.7l26.5,45.4l-37.9-0.1l-19.3-33.2
			l-20.4,0l0,33.2l-32.9,0L446.8,215.5z M499.9,279.2c10,0,18-7.8,18-17.8c0-10-8-18-18-18l-20.4,0l-0.1,35.9L499.9,279.2z"/>
		<path class="st0" d="M628.7,215.8l14.7,0l58.7,125.3l-32.9,0l-7.7-16.4l-51.2-0.1l-7.5,16.3l-32.7,0L628.7,215.8z M648.8,297
			l-12.6-27.5l-12.9,27.5L648.8,297z"/>
		<path class="st0" d="M716.8,216l13.3,0l59.2,59.2l0.1-59.1l32.9,0l-0.2,125.2l-13.5,0l-59-59.3l-0.1,59.2l-32.9,0L716.8,216z"/>
		<path class="st0" d="M841.7,278.8c0.1-34.5,28.1-62.5,62.7-62.5c17.2,0,32.7,6.9,44,18.3l-23.1,23.2c-5.5-5.3-12.7-8.2-21-8.2
			c-17,0-29.4,12.3-29.4,29.3c0,17,12.3,29.4,29.3,29.4c8.5,0,15.9-3,21-8.3l23.3,23.1c-11.7,11.7-28.2,18.5-44.4,18.5
			C869.7,341.4,841.7,313.3,841.7,278.8z"/>
		<path class="st0" d="M1022.5,341.6c-34.6-0.1-62.4-28-62.3-62.5c0.1-34.5,28-62.7,62.5-62.7c34.6,0.1,62.5,28.3,62.5,62.8
			C1085.1,313.9,1057.1,341.7,1022.5,341.6z M1022.7,249.2c-16.4,0-29.7,13.3-29.8,29.8c0,16.4,13.3,29.9,29.7,29.9
			c16.5,0,29.9-13.5,29.9-29.8C1052.5,262.6,1039.2,249.2,1022.7,249.2z"/>
		<g>
			<path class="st0" d="M411.3,151.3c-5.8,5.8-13.2,8.8-21.6,8.8c0,0,0,0,0,0c-16.8,0-30.4-13.8-30.4-30.7c0-8.1,3.2-15.8,9-21.5
				c5.8-5.7,13.4-8.9,21.5-8.9c0,0,0,0,0,0c8.1,0,15.8,3.2,21.6,9.1l1.9,1.9l7.8-8.4l-1.8-1.8c-7.9-8-18.5-12.4-29.7-12.4
				c0,0,0,0-0.1,0c-23.1,0-42,18.8-42,42c0,11.2,4.3,21.8,12.3,29.7c7.9,8,18.5,12.3,29.7,12.4c0,0,0,0,0.1,0
				c11.4,0,22-4.3,29.8-12.2l1.9-1.9l-8.2-7.9L411.3,151.3z"/>
			<path class="st0" d="M472.7,87.6C472.7,87.6,472.7,87.6,472.7,87.6c-23.2,0-42.1,18.8-42.1,42c0,11.2,4.3,21.8,12.3,29.7
				c7.9,8,18.5,12.3,29.7,12.4c0,0,0,0,0.1,0c11.2,0,21.7-4.4,29.6-12.3c7.9-7.9,12.3-18.5,12.3-29.7
				C514.6,106.5,495.8,87.6,472.7,87.6z M472.8,160.1C472.7,160.1,472.7,160.1,472.8,160.1c-16.8,0-30.5-13.8-30.5-30.6
				c0-8.1,3.2-15.8,9-21.5c5.8-5.7,13.4-8.9,21.5-8.9c0,0,0,0,0,0c8.1,0,15.8,3.2,21.5,9c5.8,5.8,8.9,13.4,8.9,21.5
				C503.2,146.5,489.5,160.1,472.8,160.1z"/>
			<polygon class="st0" points="540.4,87.7 529,87.6 528.9,171.7 583.1,171.8 583.1,160.4 540.3,160.4 			"/>
			<polygon class="st0" points="644.3,60.9 632,60.9 620.8,84.6 633.3,84.7 			"/>
			<polygon class="st0" points="598.4,171.8 652.4,171.9 652.4,160.5 609.7,160.5 609.8,134.6 649.2,134.6 649.2,123.3 609.8,123.2 
				609.8,99.1 652.5,99.2 652.6,87.8 598.5,87.8 			"/>
			<path class="st0" d="M747.8,124.8l-44.3-0.1l0,11.4l32.7,0c-2.8,14.3-15.3,24.6-30.2,24.6c0,0,0,0-0.1,0
				c-16.8,0-30.4-13.8-30.4-30.8c0-8.2,3.2-15.8,9-21.6c5.8-5.8,13.4-8.9,21.5-8.9c0,0,0,0,0.1,0c8.2,0,16.1,3.2,21.7,8.9l1.8,1.8
				l8.1-8l-1.8-1.8c-7.7-7.8-18.6-12.3-29.9-12.3c0,0-0.1,0-0.1,0c-11.2,0-21.7,4.4-29.7,12.3c-8,7.9-12.3,18.5-12.4,29.7
				s4.3,21.8,12.3,29.7s18.5,12.3,29.7,12.4c0,0,0.1,0,0.1,0c23.7,0,42.3-18.4,42.3-42c0-1,0-2-0.1-3L747.8,124.8z"/>
			
				<rect x="726.9" y="124.4" transform="matrix(1.641695e-03 -1 1 1.641695e-03 637.6575 898.8057)" class="st0" width="84.1" height="11.4"/>
			<path class="st0" d="M832.3,88.1C832.3,88.1,832.3,88.1,832.3,88.1c-23.2,0-42.1,18.8-42.1,42c0,11.2,4.3,21.8,12.3,29.7
				s18.5,12.3,29.7,12.4c0,0,0.1,0,0.1,0c11.2,0,21.7-4.4,29.6-12.3c7.9-7.9,12.3-18.5,12.3-29.7C874.2,107,855.4,88.2,832.3,88.1z
				 M832.3,160.7C832.3,160.7,832.3,160.7,832.3,160.7c-16.8,0-30.5-13.8-30.5-30.6c0-8.1,3.2-15.8,9-21.5
				c5.8-5.7,13.4-8.9,21.5-8.9c0,0,0,0,0.1,0c8.1,0,15.8,3.2,21.5,9c5.8,5.8,8.9,13.4,8.9,21.5c0,8.1-3.2,15.8-9,21.6
				C848.1,157.5,840.4,160.7,832.3,160.7z"/>
		</g>
	</g>
	<g>
		<path class="st1" d="M159.1,121.5c-29.8-10.9-64-9.4-94,7c-5.2,2.8-10.1,6-14.7,9.5c25.8-9.3,53.4-8.7,78,0.2
			c25.3,9.2,47.4,27.3,61.3,52.8c27.4,50.3,13.1,112.1-31.1,145.7c5.4-2,10.7-4.3,15.9-7.2c55.5-30.2,76-99.8,45.8-155.3
			C206.5,148.8,184.4,130.7,159.1,121.5z"/>
		<path class="st1" d="M207.3,0c3.7,4.7,6.8,10.1,8.9,16.1c10.2,29.1-5.1,61-34.2,71.3c-6,2.1-12.1,3.1-18.1,3.1
			c14.4,18.2,39.2,26.2,62.4,18.1c29.1-10.2,44.4-42.1,34.2-71.3C252.4,14.2,230.6-0.2,207.3,0z"/>
		<path class="st1" d="M293.4,136.2c-2.6-0.4-5.2-1.2-7.7-2.5c-12-6.3-16.5-21.2-10.2-33.2c1.3-2.5,3-4.6,4.9-6.4
			c-10.1-1.6-20.5,3.2-25.5,12.8c-6.3,12-1.8,26.8,10.2,33.2C274.7,145.1,286,143.2,293.4,136.2z"/>
		<path class="st2" d="M214.9,133.9c80.2,93.5,20.6,162.9-2.3,185.5c-9.5,9.5-20.4,17.4-32.3,23.6
			C278.6,318.2,349.6,197.3,214.9,133.9z"/>
		<path class="st2" d="M190.6,263.2C192,181.5,87.8,96.5,0,199.5C97.1,160,166.3,200.7,190.6,263.2z"/>
	</g>
</g>
</svg>
